<?xml version="1.0" encoding="utf-8"?>
<!-- Generator: Adobe Illustrator 26.0.3, SVG Export Plug-In . SVG Version: 6.00 Build 0)  -->
<svg version="1.1" id="Warstwa_1" xmlns="http://www.w3.org/2000/svg" xmlns:xlink="http://www.w3.org/1999/xlink" x="0px" y="0px"
	 viewBox="0 0 129 39.9" style="enable-background:new 0 0 129 39.9;" xml:space="preserve">
<style type="text/css">
	.st0{fill:#808080;}
	.st1{fill:#9FC4F9;}
	.st2{fill:#487DB4;}
	.st3{enable-background:new    ;}
	.st4{fill:none;stroke:#487DB4;stroke-width:1.0046;}
	.st5{fill:none;stroke:#487DB4;stroke-width:0.9713;}
</style>
<g id="layer1_00000018217513543741907280000014033555013487675062_">
	<g id="path54_00000057858292269561931890000003182691265317055650_">
		<g>
			<path class="st1" d="M5.5,39.3L5.3,19.7H1L20.1,0.6l19.2,19.2h-4l-0.1,0.1v19.4H24.4V27.4h-8.1v12.1H5.6L5.5,39.3z"/>
		</g>
		<g>
			<path class="st2" d="M16.8,39.9H5.2l-0.1-0.6L4.9,20.1H0L20.1,0l20.2,20.2h-4.7v19.5H24V27.8h-7.2V39.9z M5.9,39.1h10V27h8.9
				v11.9h10V19.8l0.2-0.4h3.3L20.1,1.2L2,19.3h3.7L5.9,39.1z"/>
		</g>
	</g>
	<g class="st3">
		<g>
			<path class="st1" d="M56.6,10.4c0,1.4-0.2,2.6-0.7,3.6s-1.1,1.8-2,2.4c-0.9,0.6-1.9,0.8-3,0.8c-1.7,0-3.1-0.6-4.2-1.9
				c-1.1-1.2-1.6-2.9-1.6-5.1V8.8c0-1.4,0.2-2.6,0.7-3.6c0.5-1,1.2-1.9,2-2.4c0.9-0.6,1.9-0.8,3-0.8s2.1,0.3,3,0.8
				c0.9,0.6,1.5,1.3,2,2.3c0.5,1,0.7,2.2,0.7,3.5V10.4z M55.3,8.7c0-1.8-0.4-3.2-1.2-4.2c-0.8-1-1.9-1.5-3.3-1.5
				c-1.4,0-2.5,0.5-3.3,1.5c-0.8,1-1.2,2.5-1.2,4.3v1.6c0,1.8,0.4,3.2,1.2,4.2c0.8,1,1.9,1.6,3.3,1.6c1.4,0,2.5-0.5,3.3-1.5
				c0.8-1,1.2-2.4,1.2-4.3V8.7z"/>
			<path class="st2" d="M50.8,17.5c-1.8,0-3.3-0.7-4.4-2c-1.1-1.3-1.7-3-1.7-5.2V8.8c0-1.4,0.2-2.6,0.7-3.7C46,4,46.7,3.1,47.6,2.5
				c0.9-0.6,2-0.9,3.2-0.9c1.2,0,2.2,0.3,3.2,0.9c0.9,0.6,1.6,1.4,2.1,2.5c0.5,1,0.7,2.3,0.8,3.6v1.8c0,1.4-0.2,2.7-0.7,3.7
				c-0.5,1.1-1.2,1.9-2.1,2.5C53.1,17.2,52,17.5,50.8,17.5z M50.8,2.1c-1.1,0-2.1,0.3-2.9,0.8c-0.8,0.5-1.5,1.3-1.9,2.3
				c-0.5,1-0.7,2.2-0.7,3.5v1.5c0,2,0.5,3.7,1.5,4.9c1,1.2,2.4,1.8,4,1.8c1.1,0,2.1-0.3,2.9-0.8c0.8-0.5,1.5-1.3,1.9-2.3
				c0.5-1,0.7-2.2,0.7-3.5V8.6c0-1.3-0.3-2.4-0.7-3.4c-0.5-1-1.1-1.7-1.9-2.2C52.8,2.4,51.9,2.1,50.8,2.1z M50.8,16.4
				c-1.5,0-2.7-0.6-3.5-1.6c-0.8-1.1-1.3-2.5-1.3-4.4V8.8c0-1.9,0.4-3.4,1.3-4.4c0.9-1.1,2-1.6,3.5-1.6c1.5,0,2.7,0.5,3.5,1.6
				c0.8,1.1,1.3,2.5,1.3,4.4v1.6c0,1.9-0.4,3.4-1.2,4.4C53.5,15.8,52.3,16.4,50.8,16.4z M50.8,3.2c-1.3,0-2.3,0.5-3.1,1.4
				c-0.8,1-1.2,2.4-1.2,4.1v1.6c0,1.7,0.4,3.1,1.2,4.1c0.8,1,1.8,1.5,3.1,1.5c1.4,0,2.4-0.5,3.1-1.4c0.8-1,1.1-2.4,1.1-4.1V8.7
				c0-1.7-0.4-3.1-1.2-4.1C53.1,3.7,52.1,3.2,50.8,3.2z"/>
		</g>
		<g>
			<path class="st1" d="M59,11.4c0-1.7,0.4-3.1,1.1-4.1c0.8-1,1.8-1.5,3.1-1.5c1.5,0,2.6,0.6,3.4,1.8V1.3h1.2V17h-1.1l-0.1-1.5
				c-0.8,1.1-1.9,1.7-3.4,1.7c-1.3,0-2.3-0.5-3.1-1.5c-0.8-1-1.2-2.4-1.2-4.2V11.4z M60.2,11.6c0,1.4,0.3,2.5,0.8,3.3
				c0.6,0.8,1.4,1.2,2.4,1.2c1.5,0,2.6-0.7,3.2-2V8.9c-0.6-1.4-1.7-2.2-3.2-2.2c-1,0-1.8,0.4-2.4,1.2C60.5,8.8,60.2,10,60.2,11.6z"
				/>
			<path class="st2" d="M63.2,17.5c-1.3,0-2.4-0.6-3.3-1.6c-0.8-1.1-1.2-2.5-1.2-4.3v-0.1c0-1.8,0.4-3.2,1.2-4.3
				c0.8-1.1,1.9-1.6,3.3-1.6c1.3,0,2.4,0.4,3.2,1.3V1h1.7v16.3h-1.6l0-1.1C65.6,17.1,64.5,17.5,63.2,17.5z M63.2,6
				C62,6,61,6.4,60.3,7.4c-0.7,1-1.1,2.3-1.1,4v0.1c0,1.7,0.4,3,1.1,4c0.7,1,1.7,1.4,2.9,1.4c1.4,0,2.5-0.5,3.2-1.6l0.4-0.6l0.1,2
				h0.7V1.5h-0.7v6.8l-0.5-0.7C65.7,6.5,64.6,6,63.2,6z M63.4,16.4c-1.1,0-2-0.4-2.6-1.3c-0.6-0.9-0.9-2-0.9-3.5
				c0-1.6,0.3-2.9,0.9-3.7c0.6-0.9,1.5-1.3,2.6-1.3c1.6,0,2.7,0.8,3.4,2.3l0,0.1l0,5.3C66.2,15.7,65,16.4,63.4,16.4z M63.4,7
				c-0.9,0-1.7,0.4-2.2,1.1c-0.5,0.8-0.8,1.9-0.8,3.4c0,1.4,0.3,2.4,0.8,3.2c0.5,0.8,1.2,1.1,2.2,1.1c1.4,0,2.4-0.6,3-1.8V9
				C65.8,7.7,64.8,7,63.4,7z"/>
		</g>
		<g>
			<path class="st1" d="M79.9,11.6c0,1.7-0.4,3.1-1.1,4.1s-1.8,1.5-3.1,1.5c-1.5,0-2.7-0.6-3.5-1.7L72.2,17H71V1.3h1.2v6.3
				c0.8-1.2,1.9-1.8,3.4-1.8c1.3,0,2.3,0.5,3.1,1.5c0.8,1,1.1,2.4,1.1,4.2V11.6z M78.7,11.4c0-1.5-0.3-2.6-0.8-3.4
				c-0.6-0.8-1.4-1.2-2.4-1.2c-0.8,0-1.4,0.2-2,0.6c-0.5,0.4-1,1-1.2,1.7v5c0.6,1.4,1.7,2.1,3.2,2.1c1,0,1.8-0.4,2.4-1.2
				C78.4,14.2,78.7,13,78.7,11.4z"/>
			<path class="st2" d="M75.7,17.5c-1.4,0-2.4-0.4-3.3-1.3l0,1.1h-1.6V1h1.7v5.8c0.8-0.9,1.9-1.3,3.2-1.3c1.4,0,2.5,0.5,3.3,1.6
				c0.8,1,1.2,2.5,1.2,4.3v0.2c0,1.8-0.4,3.2-1.2,4.3C78.2,16.9,77.1,17.5,75.7,17.5z M72,14.7l0.4,0.6c0.7,1.1,1.8,1.6,3.3,1.6
				c1.2,0,2.2-0.5,2.9-1.4c0.7-1,1.1-2.3,1.1-4v-0.2c0-1.7-0.4-3.1-1.1-4C77.9,6.4,76.9,6,75.7,6c-1.4,0-2.5,0.6-3.2,1.7L72,8.4V1.5
				h-0.7v15.3h0.6L72,14.7z M75.5,16.4c-1.6,0-2.8-0.8-3.5-2.2l0-0.1L72,9c0.3-0.8,0.7-1.4,1.3-1.8c0.6-0.4,1.3-0.6,2.1-0.6
				c1.1,0,2,0.4,2.6,1.3c0.6,0.8,0.9,2,0.9,3.5c0,1.6-0.3,2.9-0.9,3.7C77.4,16,76.6,16.4,75.5,16.4z M72.5,14c0.6,1.3,1.6,1.9,3,1.9
				c0.9,0,1.6-0.4,2.2-1.1c0.5-0.8,0.8-1.9,0.8-3.4c0-1.4-0.3-2.5-0.8-3.2C77.1,7.4,76.4,7,75.5,7c-0.7,0-1.3,0.2-1.8,0.5
				c-0.5,0.3-0.9,0.9-1.1,1.5V14z"/>
		</g>
		<g>
			<path class="st1" d="M82.5,2.7c0-0.2,0.1-0.4,0.2-0.6c0.1-0.2,0.4-0.2,0.6-0.2c0.3,0,0.5,0.1,0.6,0.2c0.2,0.2,0.2,0.4,0.2,0.6
				c0,0.2-0.1,0.4-0.2,0.6c-0.2,0.2-0.4,0.2-0.6,0.2c-0.3,0-0.5-0.1-0.6-0.2C82.6,3.1,82.5,2.9,82.5,2.7z M84,17h-1.2V5.9H84V17z"/>
			<path class="st2" d="M84.2,17.3h-1.7V5.7h1.7V17.3z M83,16.8h0.7V6.2H83V16.8z M83.4,3.8c-0.3,0-0.6-0.1-0.8-0.3
				c-0.2-0.2-0.3-0.5-0.3-0.8c0-0.3,0.1-0.6,0.3-0.8c0.4-0.4,1.2-0.4,1.6,0c0.2,0.2,0.3,0.5,0.3,0.8c0,0.3-0.1,0.6-0.3,0.8
				C84,3.7,83.7,3.8,83.4,3.8z M83.4,2.1c-0.2,0-0.3,0.1-0.4,0.2c-0.1,0.1-0.2,0.2-0.2,0.4c0,0.2,0.1,0.3,0.2,0.4
				c0.2,0.2,0.7,0.2,0.9,0C83.9,3,84,2.9,84,2.7c0-0.2-0.1-0.3-0.2-0.4C83.7,2.2,83.6,2.1,83.4,2.1z"/>
		</g>
		<g>
			<path class="st1" d="M86.6,11.3c0-1.1,0.2-2,0.6-2.9c0.4-0.9,1-1.5,1.7-2c0.8-0.5,1.6-0.7,2.6-0.7c1.5,0,2.7,0.5,3.6,1.6
				c0.9,1,1.4,2.4,1.4,4.1v0.3c0,1.1-0.2,2-0.6,2.9s-1,1.5-1.7,2c-0.7,0.5-1.6,0.7-2.6,0.7c-1.5,0-2.6-0.5-3.6-1.6
				c-0.9-1-1.4-2.4-1.4-4.1V11.3z M87.8,11.6c0,1.3,0.3,2.4,1,3.3c0.7,0.9,1.6,1.3,2.7,1.3c1.1,0,2-0.4,2.7-1.3c0.7-0.9,1-2,1-3.4
				v-0.2c0-0.8-0.2-1.6-0.5-2.3c-0.3-0.7-0.8-1.2-1.3-1.6c-0.6-0.4-1.2-0.6-1.9-0.6c-1.1,0-2,0.4-2.7,1.3c-0.7,0.9-1,2-1,3.4V11.6z"
				/>
			<path class="st2" d="M91.5,17.5c-1.5,0-2.8-0.6-3.7-1.6c-1-1.1-1.4-2.5-1.4-4.3v-0.2c0-1.1,0.2-2.1,0.6-3c0.4-0.9,1-1.6,1.8-2.1
				c0.8-0.5,1.7-0.8,2.7-0.8c1.5,0,2.8,0.6,3.8,1.6c0.9,1.1,1.4,2.5,1.4,4.3v0.3c0,1.1-0.2,2.1-0.6,3c-0.4,0.9-1,1.6-1.8,2.1
				C93.5,17.2,92.5,17.5,91.5,17.5z M91.5,6c-0.9,0-1.7,0.2-2.4,0.7c-0.7,0.4-1.3,1.1-1.7,1.9c-0.4,0.8-0.6,1.8-0.6,2.8v0.2
				c0,1.6,0.4,3,1.3,4c0.9,1,2,1.5,3.4,1.5c0.9,0,1.7-0.2,2.4-0.7c0.7-0.4,1.3-1.1,1.6-1.9c0.4-0.8,0.6-1.8,0.6-2.8v-0.3
				c0-1.6-0.4-3-1.3-4C94.1,6.5,92.9,6,91.5,6z M91.5,16.4c-1.2,0-2.2-0.5-2.9-1.4c-0.7-0.9-1.1-2-1.1-3.4v-0.2
				c0-1.4,0.4-2.6,1.1-3.5c0.7-0.9,1.7-1.4,2.9-1.4c0.8,0,1.5,0.2,2.1,0.6c0.6,0.4,1.1,1,1.4,1.7c0.3,0.7,0.5,1.6,0.5,2.4v0.2
				c0,1.4-0.4,2.6-1.1,3.5C93.7,16,92.7,16.4,91.5,16.4z M91.5,7c-1,0-1.8,0.4-2.5,1.2c-0.6,0.8-1,1.9-1,3.2v0.2
				c0,1.3,0.3,2.3,1,3.1c0.6,0.8,1.5,1.2,2.5,1.2c1,0,1.8-0.4,2.5-1.2c0.6-0.8,1-1.9,1-3.2v-0.2c0-0.8-0.2-1.6-0.4-2.2
				c-0.3-0.7-0.7-1.2-1.2-1.5C92.8,7.2,92.2,7,91.5,7z"/>
		</g>
		<g>
			<path class="st1" d="M104.1,7c-0.3,0-0.5-0.1-0.8-0.1c-0.8,0-1.4,0.2-1.9,0.6c-0.5,0.4-0.9,1-1.1,1.9V17H99V5.9h1.2l0,1.8
				c0.6-1.3,1.7-2,3.1-2c0.3,0,0.6,0,0.8,0.1L104.1,7z"/>
			<path class="st2" d="M100.4,17.3h-1.7V5.7h1.7l0,1.1c0.7-0.9,1.6-1.4,2.9-1.4c0.4,0,0.7,0.1,0.9,0.2l0.2,0.1l0,1.6L104,7.2
				c-0.2,0-0.5-0.1-0.8-0.1c-0.7,0-1.3,0.2-1.8,0.6c-0.5,0.4-0.8,1-1,1.7V17.3z M99.2,16.8h0.7l0-7.4c0.2-0.9,0.6-1.5,1.2-2
				c0.6-0.5,1.3-0.7,2.1-0.7c0.2,0,0.4,0,0.6,0l0-0.7c-0.1,0-0.3-0.1-0.6-0.1c-1.3,0-2.3,0.6-2.9,1.8L100,8.7l0-2.6h-0.7V16.8z"/>
		</g>
		<g>
			<path class="st1" d="M109.7,15.3l3.2-9.3h1.3l-4.7,13l-0.2,0.6c-0.6,1.3-1.5,2-2.8,2c-0.3,0-0.6,0-0.9-0.1l0-1l0.6,0.1
				c0.6,0,1.1-0.1,1.5-0.4c0.4-0.3,0.7-0.8,0.9-1.5l0.5-1.5l-4.2-11h1.3L109.7,15.3z"/>
			<path class="st2" d="M106.5,21.8c-0.3,0-0.7-0.1-1-0.2l-0.2-0.1l0-1.5l0.9,0.1c0.5,0,0.9-0.1,1.3-0.4c0.3-0.3,0.6-0.7,0.9-1.4
				l0.5-1.4l-4.3-11.3h1.9l3.2,8.8l3-8.8h1.8L109.7,19l-0.2,0.6C108.8,21,107.8,21.8,106.5,21.8z M105.8,21.2
				c0.2,0.1,0.5,0.1,0.7,0.1c1.2,0,2-0.6,2.6-1.9l0.2-0.6l4.6-12.6h-0.8l-3.4,9.8l-3.6-9.8h-0.8l4.1,10.8l-0.6,1.6
				c-0.3,0.8-0.6,1.3-1,1.6c-0.4,0.3-1,0.5-1.6,0.5l-0.4,0L105.8,21.2z"/>
		</g>
	</g>
	<g class="st3">
		<g>
			<path class="st1" d="M56.6,10.4c0,1.4-0.2,2.6-0.7,3.6s-1.1,1.8-2,2.4c-0.9,0.6-1.9,0.8-3,0.8c-1.7,0-3.1-0.6-4.2-1.9
				c-1.1-1.2-1.6-2.9-1.6-5.1V8.8c0-1.4,0.2-2.6,0.7-3.6c0.5-1,1.2-1.9,2-2.4c0.9-0.6,1.9-0.8,3-0.8s2.1,0.3,3,0.8
				c0.9,0.6,1.5,1.3,2,2.3c0.5,1,0.7,2.2,0.7,3.5V10.4z M55.3,8.7c0-1.8-0.4-3.2-1.2-4.2c-0.8-1-1.9-1.5-3.3-1.5
				c-1.4,0-2.5,0.5-3.3,1.5c-0.8,1-1.2,2.5-1.2,4.3v1.6c0,1.8,0.4,3.2,1.2,4.2c0.8,1,1.9,1.6,3.3,1.6c1.4,0,2.5-0.5,3.3-1.5
				c0.8-1,1.2-2.4,1.2-4.3V8.7z"/>
			<path class="st2" d="M50.8,17.5c-1.8,0-3.3-0.7-4.4-2c-1.1-1.3-1.7-3-1.7-5.2V8.8c0-1.4,0.2-2.6,0.7-3.7C46,4,46.7,3.1,47.6,2.5
				c0.9-0.6,2-0.9,3.2-0.9c1.2,0,2.2,0.3,3.2,0.9c0.9,0.6,1.6,1.4,2.1,2.5c0.5,1,0.7,2.3,0.8,3.6v1.8c0,1.4-0.2,2.7-0.7,3.7
				c-0.5,1.1-1.2,1.9-2.1,2.5C53.1,17.2,52,17.5,50.8,17.5z M50.8,2.1c-1.1,0-2.1,0.3-2.9,0.8c-0.8,0.5-1.5,1.3-1.9,2.3
				c-0.5,1-0.7,2.2-0.7,3.5v1.5c0,2,0.5,3.7,1.5,4.9c1,1.2,2.4,1.8,4,1.8c1.1,0,2.1-0.3,2.9-0.8c0.8-0.5,1.5-1.3,1.9-2.3
				c0.5-1,0.7-2.2,0.7-3.5V8.6c0-1.3-0.3-2.4-0.7-3.4c-0.5-1-1.1-1.7-1.9-2.2C52.8,2.4,51.9,2.1,50.8,2.1z M50.8,16.4
				c-1.5,0-2.7-0.6-3.5-1.6c-0.8-1.1-1.3-2.5-1.3-4.4V8.8c0-1.9,0.4-3.4,1.3-4.4c0.9-1.1,2-1.6,3.5-1.6c1.5,0,2.7,0.5,3.5,1.6
				c0.8,1.1,1.3,2.5,1.3,4.4v1.6c0,1.9-0.4,3.4-1.2,4.4C53.5,15.8,52.3,16.4,50.8,16.4z M50.8,3.2c-1.3,0-2.3,0.5-3.1,1.4
				c-0.8,1-1.2,2.4-1.2,4.1v1.6c0,1.7,0.4,3.1,1.2,4.1c0.8,1,1.8,1.5,3.1,1.5c1.4,0,2.4-0.5,3.1-1.4c0.8-1,1.1-2.4,1.1-4.1V8.7
				c0-1.7-0.4-3.1-1.2-4.1C53.1,3.7,52.1,3.2,50.8,3.2z"/>
		</g>
		<g>
			<path class="st1" d="M59,11.4c0-1.7,0.4-3.1,1.1-4.1c0.8-1,1.8-1.5,3.1-1.5c1.5,0,2.6,0.6,3.4,1.8V1.3h1.2V17h-1.1l-0.1-1.5
				c-0.8,1.1-1.9,1.7-3.4,1.7c-1.3,0-2.3-0.5-3.1-1.5c-0.8-1-1.2-2.4-1.2-4.2V11.4z M60.2,11.6c0,1.4,0.3,2.5,0.8,3.3
				c0.6,0.8,1.4,1.2,2.4,1.2c1.5,0,2.6-0.7,3.2-2V8.9c-0.6-1.4-1.7-2.2-3.2-2.2c-1,0-1.8,0.4-2.4,1.2C60.5,8.8,60.2,10,60.2,11.6z"
				/>
			<path class="st2" d="M63.2,17.5c-1.3,0-2.4-0.6-3.3-1.6c-0.8-1.1-1.2-2.5-1.2-4.3v-0.1c0-1.8,0.4-3.2,1.2-4.3
				c0.8-1.1,1.9-1.6,3.3-1.6c1.3,0,2.4,0.4,3.2,1.3V1h1.7v16.3h-1.6l0-1.1C65.6,17.1,64.5,17.5,63.2,17.5z M63.2,6
				C62,6,61,6.4,60.3,7.4c-0.7,1-1.1,2.3-1.1,4v0.1c0,1.7,0.4,3,1.1,4c0.7,1,1.7,1.4,2.9,1.4c1.4,0,2.5-0.5,3.2-1.6l0.4-0.6l0.1,2
				h0.7V1.5h-0.7v6.8l-0.5-0.7C65.7,6.5,64.6,6,63.2,6z M63.4,16.4c-1.1,0-2-0.4-2.6-1.3c-0.6-0.9-0.9-2-0.9-3.5
				c0-1.6,0.3-2.9,0.9-3.7c0.6-0.9,1.5-1.3,2.6-1.3c1.6,0,2.7,0.8,3.4,2.3l0,0.1l0,5.3C66.2,15.7,65,16.4,63.4,16.4z M63.4,7
				c-0.9,0-1.7,0.4-2.2,1.1c-0.5,0.8-0.8,1.9-0.8,3.4c0,1.4,0.3,2.4,0.8,3.2c0.5,0.8,1.2,1.1,2.2,1.1c1.4,0,2.4-0.6,3-1.8V9
				C65.8,7.7,64.8,7,63.4,7z"/>
		</g>
		<g>
			<path class="st1" d="M79.9,11.6c0,1.7-0.4,3.1-1.1,4.1s-1.8,1.5-3.1,1.5c-1.5,0-2.7-0.6-3.5-1.7L72.2,17H71V1.3h1.2v6.3
				c0.8-1.2,1.9-1.8,3.4-1.8c1.3,0,2.3,0.5,3.1,1.5c0.8,1,1.1,2.4,1.1,4.2V11.6z M78.7,11.4c0-1.5-0.3-2.6-0.8-3.4
				c-0.6-0.8-1.4-1.2-2.4-1.2c-0.8,0-1.4,0.2-2,0.6c-0.5,0.4-1,1-1.2,1.7v5c0.6,1.4,1.7,2.1,3.2,2.1c1,0,1.8-0.4,2.4-1.2
				C78.4,14.2,78.7,13,78.7,11.4z"/>
			<path class="st2" d="M75.7,17.5c-1.4,0-2.4-0.4-3.3-1.3l0,1.1h-1.6V1h1.7v5.8c0.8-0.9,1.9-1.3,3.2-1.3c1.4,0,2.5,0.5,3.3,1.6
				c0.8,1,1.2,2.5,1.2,4.3v0.2c0,1.8-0.4,3.2-1.2,4.3C78.2,16.9,77.1,17.5,75.7,17.5z M72,14.7l0.4,0.6c0.7,1.1,1.8,1.6,3.3,1.6
				c1.2,0,2.2-0.5,2.9-1.4c0.7-1,1.1-2.3,1.1-4v-0.2c0-1.7-0.4-3.1-1.1-4C77.9,6.4,76.9,6,75.7,6c-1.4,0-2.5,0.6-3.2,1.7L72,8.4V1.5
				h-0.7v15.3h0.6L72,14.7z M75.5,16.4c-1.6,0-2.8-0.8-3.5-2.2l0-0.1L72,9c0.3-0.8,0.7-1.4,1.3-1.8c0.6-0.4,1.3-0.6,2.1-0.6
				c1.1,0,2,0.4,2.6,1.3c0.6,0.8,0.9,2,0.9,3.5c0,1.6-0.3,2.9-0.9,3.7C77.4,16,76.6,16.4,75.5,16.4z M72.5,14c0.6,1.3,1.6,1.9,3,1.9
				c0.9,0,1.6-0.4,2.2-1.1c0.5-0.8,0.8-1.9,0.8-3.4c0-1.4-0.3-2.5-0.8-3.2C77.1,7.4,76.4,7,75.5,7c-0.7,0-1.3,0.2-1.8,0.5
				c-0.5,0.3-0.9,0.9-1.1,1.5V14z"/>
		</g>
		<g>
			<path class="st1" d="M82.5,2.7c0-0.2,0.1-0.4,0.2-0.6c0.1-0.2,0.4-0.2,0.6-0.2c0.3,0,0.5,0.1,0.6,0.2c0.2,0.2,0.2,0.4,0.2,0.6
				c0,0.2-0.1,0.4-0.2,0.6c-0.2,0.2-0.4,0.2-0.6,0.2c-0.3,0-0.5-0.1-0.6-0.2C82.6,3.1,82.5,2.9,82.5,2.7z M84,17h-1.2V5.9H84V17z"/>
			<path class="st2" d="M84.2,17.3h-1.7V5.7h1.7V17.3z M83,16.8h0.7V6.2H83V16.8z M83.4,3.8c-0.3,0-0.6-0.1-0.8-0.3
				c-0.2-0.2-0.3-0.5-0.3-0.8c0-0.3,0.1-0.6,0.3-0.8c0.4-0.4,1.2-0.4,1.6,0c0.2,0.2,0.3,0.5,0.3,0.8c0,0.3-0.1,0.6-0.3,0.8
				C84,3.7,83.7,3.8,83.4,3.8z M83.4,2.1c-0.2,0-0.3,0.1-0.4,0.2c-0.1,0.1-0.2,0.2-0.2,0.4c0,0.2,0.1,0.3,0.2,0.4
				c0.2,0.2,0.7,0.2,0.9,0C83.9,3,84,2.9,84,2.7c0-0.2-0.1-0.3-0.2-0.4C83.7,2.2,83.6,2.1,83.4,2.1z"/>
		</g>
		<g>
			<path class="st1" d="M86.6,11.3c0-1.1,0.2-2,0.6-2.9c0.4-0.9,1-1.5,1.7-2c0.8-0.5,1.6-0.7,2.6-0.7c1.5,0,2.7,0.5,3.6,1.6
				c0.9,1,1.4,2.4,1.4,4.1v0.3c0,1.1-0.2,2-0.6,2.9s-1,1.5-1.7,2c-0.7,0.5-1.6,0.7-2.6,0.7c-1.5,0-2.6-0.5-3.6-1.6
				c-0.9-1-1.4-2.4-1.4-4.1V11.3z M87.8,11.6c0,1.3,0.3,2.4,1,3.3c0.7,0.9,1.6,1.3,2.7,1.3c1.1,0,2-0.4,2.7-1.3c0.7-0.9,1-2,1-3.4
				v-0.2c0-0.8-0.2-1.6-0.5-2.3c-0.3-0.7-0.8-1.2-1.3-1.6c-0.6-0.4-1.2-0.6-1.9-0.6c-1.1,0-2,0.4-2.7,1.3c-0.7,0.9-1,2-1,3.4V11.6z"
				/>
			<path class="st2" d="M91.5,17.5c-1.5,0-2.8-0.6-3.7-1.6c-1-1.1-1.4-2.5-1.4-4.3v-0.2c0-1.1,0.2-2.1,0.6-3c0.4-0.9,1-1.6,1.8-2.1
				c0.8-0.5,1.7-0.8,2.7-0.8c1.5,0,2.8,0.6,3.8,1.6c0.9,1.1,1.4,2.5,1.4,4.3v0.3c0,1.1-0.2,2.1-0.6,3c-0.4,0.9-1,1.6-1.8,2.1
				C93.5,17.2,92.5,17.5,91.5,17.5z M91.5,6c-0.9,0-1.7,0.2-2.4,0.7c-0.7,0.4-1.3,1.1-1.7,1.9c-0.4,0.8-0.6,1.8-0.6,2.8v0.2
				c0,1.6,0.4,3,1.3,4c0.9,1,2,1.5,3.4,1.5c0.9,0,1.7-0.2,2.4-0.7c0.7-0.4,1.3-1.1,1.6-1.9c0.4-0.8,0.6-1.8,0.6-2.8v-0.3
				c0-1.6-0.4-3-1.3-4C94.1,6.5,92.9,6,91.5,6z M91.5,16.4c-1.2,0-2.2-0.5-2.9-1.4c-0.7-0.9-1.1-2-1.1-3.4v-0.2
				c0-1.4,0.4-2.6,1.1-3.5c0.7-0.9,1.7-1.4,2.9-1.4c0.8,0,1.5,0.2,2.1,0.6c0.6,0.4,1.1,1,1.4,1.7c0.3,0.7,0.5,1.6,0.5,2.4v0.2
				c0,1.4-0.4,2.6-1.1,3.5C93.7,16,92.7,16.4,91.5,16.4z M91.5,7c-1,0-1.8,0.4-2.5,1.2c-0.6,0.8-1,1.9-1,3.2v0.2
				c0,1.3,0.3,2.3,1,3.1c0.6,0.8,1.5,1.2,2.5,1.2c1,0,1.8-0.4,2.5-1.2c0.6-0.8,1-1.9,1-3.2v-0.2c0-0.8-0.2-1.6-0.4-2.2
				c-0.3-0.7-0.7-1.2-1.2-1.5C92.8,7.2,92.2,7,91.5,7z"/>
		</g>
		<g>
			<path class="st1" d="M104.1,7c-0.3,0-0.5-0.1-0.8-0.1c-0.8,0-1.4,0.2-1.9,0.6c-0.5,0.4-0.9,1-1.1,1.9V17H99V5.9h1.2l0,1.8
				c0.6-1.3,1.7-2,3.1-2c0.3,0,0.6,0,0.8,0.1L104.1,7z"/>
			<path class="st2" d="M100.4,17.3h-1.7V5.7h1.7l0,1.1c0.7-0.9,1.6-1.4,2.9-1.4c0.4,0,0.7,0.1,0.9,0.2l0.2,0.1l0,1.6L104,7.2
				c-0.2,0-0.5-0.1-0.8-0.1c-0.7,0-1.3,0.2-1.8,0.6c-0.5,0.4-0.8,1-1,1.7V17.3z M99.2,16.8h0.7l0-7.4c0.2-0.9,0.6-1.5,1.2-2
				c0.6-0.5,1.3-0.7,2.1-0.7c0.2,0,0.4,0,0.6,0l0-0.7c-0.1,0-0.3-0.1-0.6-0.1c-1.3,0-2.3,0.6-2.9,1.8L100,8.7l0-2.6h-0.7V16.8z"/>
		</g>
		<g>
			<path class="st1" d="M109.7,15.3l3.2-9.3h1.3l-4.7,13l-0.2,0.6c-0.6,1.3-1.5,2-2.8,2c-0.3,0-0.6,0-0.9-0.1l0-1l0.6,0.1
				c0.6,0,1.1-0.1,1.5-0.4c0.4-0.3,0.7-0.8,0.9-1.5l0.5-1.5l-4.2-11h1.3L109.7,15.3z"/>
			<path class="st2" d="M106.5,21.8c-0.3,0-0.7-0.1-1-0.2l-0.2-0.1l0-1.5l0.9,0.1c0.5,0,0.9-0.1,1.3-0.4c0.3-0.3,0.6-0.7,0.9-1.4
				l0.5-1.4l-4.3-11.3h1.9l3.2,8.8l3-8.8h1.8L109.7,19l-0.2,0.6C108.8,21,107.8,21.8,106.5,21.8z M105.8,21.2
				c0.2,0.1,0.5,0.1,0.7,0.1c1.2,0,2-0.6,2.6-1.9l0.2-0.6l4.6-12.6h-0.8l-3.4,9.8l-3.6-9.8h-0.8l4.1,10.8l-0.6,1.6
				c-0.3,0.8-0.6,1.3-1,1.6c-0.4,0.3-1,0.5-1.6,0.5l-0.4,0L105.8,21.2z"/>
		</g>
	</g>
	<g class="st3">
		<g>
			<path class="st1" d="M47.6,22.8L53,36.3l5.4-13.4h1.7V38h-1.2v-6.6l0.1-6.8L53.5,38h-1l-5.4-13.4l0.1,6.7V38H46V22.8H47.6z"/>
			<path class="st2" d="M60.4,38.3h-1.7v-6.9l0.1-5.5l-5,12.4h-1.3l-5-12.3l0.1,5.4v6.9h-1.7V22.6h2.1l0.1,0.2L53,35.6l5.3-13h2.1
				V38.3z M59.1,37.8h0.7V23.1h-1.2L53,36.9l-5.6-13.9h-1.2v14.7H47v-6.4l-0.1-8l5.9,14.5h0.6l5.9-14.5l-0.1,8.1V37.8z"/>
		</g>
		<g>
			<path class="st1" d="M63.5,23.5c0-0.2,0.1-0.4,0.2-0.6c0.1-0.2,0.3-0.2,0.6-0.2c0.3,0,0.5,0.1,0.6,0.2c0.2,0.2,0.2,0.4,0.2,0.6
				c0,0.2-0.1,0.4-0.2,0.6s-0.4,0.2-0.6,0.2c-0.3,0-0.5-0.1-0.6-0.2C63.5,23.9,63.5,23.7,63.5,23.5z M64.9,38h-1.2V26.7h1.2V38z"/>
			<path class="st2" d="M65.1,38.3h-1.7V26.5h1.7V38.3z M63.9,37.8h0.7V27h-0.7V37.8z M64.3,24.5c-0.3,0-0.6-0.1-0.8-0.3
				c-0.2-0.2-0.3-0.5-0.3-0.8c0-0.3,0.1-0.6,0.3-0.8c0.2-0.2,0.5-0.3,0.8-0.3c0.3,0,0.6,0.1,0.8,0.3c0.2,0.2,0.3,0.5,0.3,0.8
				c0,0.3-0.1,0.6-0.3,0.8C64.9,24.4,64.6,24.5,64.3,24.5z M64.3,22.9c-0.2,0-0.3,0.1-0.4,0.2c-0.1,0.1-0.2,0.3-0.2,0.4
				c0,0.2,0.1,0.3,0.2,0.4c0.2,0.2,0.6,0.2,0.8,0c0.1-0.1,0.2-0.2,0.2-0.4c0-0.2-0.1-0.3-0.2-0.4C64.6,22.9,64.5,22.9,64.3,22.9z"/>
		</g>
		<g>
			<path class="st1" d="M72.4,38.3c-0.9,0-1.8-0.2-2.5-0.7c-0.7-0.5-1.3-1.1-1.7-2c-0.4-0.8-0.6-1.8-0.6-2.9v-0.5
				c0-1.1,0.2-2.1,0.6-2.9c0.4-0.9,1-1.6,1.7-2.1c0.7-0.5,1.5-0.7,2.4-0.7c1.3,0,2.4,0.5,3.1,1.4c0.8,0.9,1.2,2.2,1.2,3.8v0.7h-7.8
				v0.2c0,1.3,0.4,2.4,1.1,3.2c0.7,0.9,1.6,1.3,2.7,1.3c0.6,0,1.2-0.1,1.7-0.4c0.5-0.2,0.9-0.6,1.3-1.2l0.8,0.6
				C75.4,37.6,74.1,38.3,72.4,38.3z M72.2,27.6c-0.9,0-1.7,0.3-2.3,1c-0.6,0.7-1,1.6-1.1,2.8h6.5v-0.1c0-1.1-0.3-2-0.9-2.7
				C73.8,27.9,73.1,27.6,72.2,27.6z"/>
			<path class="st2" d="M72.4,38.5c-1,0-1.9-0.3-2.6-0.8c-0.8-0.5-1.4-1.2-1.8-2.1c-0.4-0.9-0.6-1.9-0.6-3v-0.4c0-1.1,0.2-2.1,0.6-3
				c0.4-0.9,1-1.6,1.8-2.2c0.8-0.5,1.6-0.8,2.5-0.8c1.4,0,2.5,0.5,3.3,1.5c0.8,1,1.2,2.3,1.2,4v1H69c0,1.2,0.3,2.2,1,3
				s1.5,1.2,2.5,1.2c0.6,0,1.1-0.1,1.6-0.3c0.5-0.2,0.9-0.6,1.3-1.1l0.2-0.2l1.1,0.9l-0.1,0.2C75.5,37.8,74.2,38.5,72.4,38.5z
				 M72.2,26.8c-0.8,0-1.5,0.2-2.2,0.7c-0.7,0.5-1.2,1.1-1.6,2c-0.4,0.8-0.6,1.8-0.6,2.8v0.4c0,1,0.2,1.9,0.6,2.7
				c0.4,0.8,1,1.4,1.7,1.9c0.7,0.4,1.5,0.7,2.4,0.7c1.5,0,2.7-0.6,3.5-1.7L75.5,36c-0.4,0.5-0.8,0.8-1.3,1c-0.5,0.3-1.1,0.4-1.8,0.4
				c-1.1,0-2.1-0.5-2.9-1.4c-0.7-0.9-1.1-2-1.1-3.4v-0.5h7.8v-0.5c0-1.6-0.4-2.8-1.1-3.7C74.4,27.2,73.4,26.8,72.2,26.8z M75.5,31.7
				h-7.1l0-0.3c0.1-1.2,0.5-2.2,1.2-2.9c0.7-0.7,1.5-1.1,2.5-1.1c1,0,1.8,0.4,2.4,1.1c0.6,0.7,0.9,1.7,1,2.8V31.7z M69,31.2h6
				c0-1-0.3-1.8-0.8-2.4c-0.5-0.6-1.2-0.9-2-0.9c-0.8,0-1.5,0.3-2.1,1C69.5,29.4,69.2,30.2,69,31.2z"/>
		</g>
		<g>
			<path class="st1" d="M85.4,35.2c0-0.6-0.2-1.1-0.7-1.5c-0.5-0.4-1.2-0.7-2.2-0.9c-1-0.2-1.7-0.5-2.3-0.7c-0.5-0.3-0.9-0.6-1.2-1
				s-0.4-0.9-0.4-1.4c0-0.9,0.4-1.6,1.1-2.2c0.7-0.6,1.6-0.9,2.8-0.9c1.2,0,2.2,0.3,2.9,0.9c0.7,0.6,1.1,1.4,1.1,2.4h-1.2
				c0-0.7-0.3-1.2-0.8-1.7c-0.5-0.4-1.2-0.7-2-0.7c-0.8,0-1.4,0.2-1.9,0.5c-0.5,0.4-0.7,0.8-0.7,1.4c0,0.6,0.2,1,0.6,1.3
				c0.4,0.3,1.1,0.6,2.2,0.9c1.1,0.3,1.9,0.5,2.4,0.8c0.5,0.3,0.9,0.6,1.2,1.1c0.3,0.4,0.4,0.9,0.4,1.5c0,1-0.4,1.7-1.1,2.3
				c-0.7,0.6-1.7,0.9-2.9,0.9c-1.3,0-2.3-0.3-3.1-1c-0.8-0.6-1.2-1.4-1.2-2.4h1.2c0,0.7,0.3,1.3,0.9,1.7c0.5,0.4,1.3,0.6,2.2,0.6
				c0.8,0,1.5-0.2,2-0.6C85.1,36.2,85.4,35.8,85.4,35.2z"/>
			<path class="st2" d="M82.5,38.5c-1.3,0-2.4-0.3-3.2-1c-0.8-0.7-1.3-1.6-1.3-2.6v-0.2h1.7l0,0.2c0,0.7,0.3,1.2,0.8,1.5
				c0.5,0.4,1.2,0.6,2,0.6c0.8,0,1.4-0.2,1.9-0.5c0.5-0.3,0.7-0.7,0.7-1.3c0-0.5-0.2-1-0.6-1.3c-0.4-0.4-1.1-0.6-2.1-0.8
				c-1-0.2-1.8-0.5-2.3-0.8c-0.6-0.3-1-0.7-1.3-1.1c-0.3-0.4-0.4-1-0.4-1.6c0-1,0.4-1.8,1.2-2.4c0.8-0.6,1.7-0.9,2.9-0.9
				c1.3,0,2.3,0.3,3.1,1c0.8,0.7,1.2,1.6,1.2,2.6v0.2H85v-0.2c0-0.6-0.2-1.1-0.7-1.5c-0.5-0.4-1.1-0.6-1.9-0.6
				c-0.7,0-1.3,0.2-1.8,0.5c-0.4,0.3-0.6,0.7-0.6,1.2c0,0.5,0.2,0.9,0.5,1.1c0.4,0.3,1.1,0.6,2.1,0.8c1.1,0.3,1.9,0.5,2.4,0.9
				c0.6,0.3,1,0.7,1.3,1.1c0.3,0.5,0.4,1,0.4,1.6c0,1-0.4,1.9-1.2,2.5C84.8,38.2,83.8,38.5,82.5,38.5z M78.5,35.1
				c0.1,0.8,0.4,1.4,1.1,2c0.7,0.6,1.7,0.9,2.9,0.9c1.1,0,2.1-0.3,2.8-0.8c0.7-0.5,1-1.2,1-2.1c0-0.5-0.1-1-0.3-1.4
				c-0.2-0.4-0.6-0.7-1.1-1c-0.5-0.3-1.3-0.6-2.3-0.8c-1.1-0.3-1.8-0.6-2.3-0.9c-0.5-0.4-0.7-0.9-0.7-1.5c0-0.7,0.3-1.2,0.8-1.6
				c0.5-0.4,1.2-0.6,2.1-0.6c0.9,0,1.6,0.2,2.2,0.7c0.5,0.4,0.8,1,0.9,1.6h0.7c-0.1-0.8-0.4-1.5-1-2c-0.7-0.6-1.6-0.9-2.8-0.9
				c-1.1,0-1.9,0.3-2.6,0.8c-0.7,0.5-1,1.2-1,2c0,0.5,0.1,1,0.3,1.3c0.2,0.4,0.6,0.7,1.1,0.9c0.5,0.3,1.2,0.5,2.2,0.7
				c1,0.2,1.8,0.5,2.3,0.9c0.5,0.4,0.8,1,0.8,1.7c0,0.7-0.3,1.2-0.9,1.7c-0.6,0.4-1.3,0.6-2.2,0.6c-1,0-1.7-0.2-2.3-0.7
				c-0.5-0.4-0.9-1-1-1.7H78.5z"/>
		</g>
		<g>
			<path class="st1" d="M90.1,37h7.1V38h-8.6v-0.9l6.6-9.3h-6.4v-1.1h7.9v0.9L90.1,37z"/>
			<path class="st2" d="M97.4,38.3h-9.1V37l6.4-9h-6.2v-1.6H97v1.3l0,0.1l-6.4,8.9h6.8V38.3z M88.8,37.8h8.1v-0.6h-7.3l6.9-9.7V27
				H89v0.6h6.6l-6.8,9.6V37.8z"/>
		</g>
		<g>
			<path class="st1" d="M101.9,32.3l-1.4,1.4V38h-1.2V22h1.2v10.3l1.1-1.3l4.2-4.3h1.5l-4.6,4.8l5,6.6h-1.4L101.9,32.3z"/>
			<path class="st2" d="M108.3,38.3h-2.1l-0.1-0.1l-4.2-5.5l-1.1,1.1v4.5h-1.7V21.7h1.7v9.9l0.7-0.8l4.3-4.3h2.2l-4.9,5L108.3,38.3z
				 M106.4,37.8h0.8l-4.9-6.3l4.4-4.5h-0.8l-4.1,4.2l-1.6,1.8V22.2h-0.7v15.6h0.7v-4.2l1.7-1.7L106.4,37.8z"/>
		</g>
		<g>
			<path class="st1" d="M116.3,38c-0.1-0.4-0.2-0.9-0.2-1.6c-0.4,0.6-1,1-1.6,1.3c-0.7,0.3-1.3,0.5-2.1,0.5c-1,0-1.9-0.3-2.5-0.9
				c-0.6-0.6-1-1.4-1-2.3c0-1.1,0.4-2,1.3-2.6c0.9-0.6,2.1-1,3.7-1h2.2v-1.3c0-0.8-0.2-1.4-0.7-1.9c-0.5-0.5-1.2-0.7-2.1-0.7
				c-0.8,0-1.5,0.2-2.1,0.7c-0.6,0.4-0.8,1-0.8,1.6l-1.2,0c0-0.9,0.4-1.7,1.2-2.3c0.8-0.7,1.8-1,3-1c1.2,0,2.2,0.3,2.9,0.9
				c0.7,0.6,1.1,1.5,1.1,2.6v5.4c0,1.1,0.1,1.9,0.3,2.5V38H116.3z M112.5,37.1c0.8,0,1.5-0.2,2.2-0.6c0.6-0.4,1.1-0.9,1.4-1.6v-2.5
				h-2.2c-1.2,0-2.1,0.2-2.8,0.7c-0.7,0.4-1,1.1-1,1.8c0,0.6,0.2,1.2,0.7,1.6C111.2,36.9,111.8,37.1,112.5,37.1z"/>
			<path class="st2" d="M112.4,38.5c-1.1,0-2-0.3-2.7-1c-0.7-0.7-1.1-1.5-1.1-2.5c0-1.2,0.5-2.1,1.4-2.8c0.9-0.7,2.2-1,3.8-1h1.9v-1
				c0-0.7-0.2-1.3-0.6-1.7c-0.4-0.4-1.1-0.6-1.9-0.6c-0.8,0-1.4,0.2-1.9,0.6c-0.5,0.4-0.7,0.9-0.7,1.4v0.3l-1.7,0v-0.2
				c0-1,0.4-1.8,1.3-2.5c0.8-0.7,1.9-1,3.1-1c1.3,0,2.3,0.3,3,1c0.8,0.7,1.1,1.6,1.2,2.8v5.4c0,1.1,0.1,1.9,0.3,2.4l0,0.1v0.4h-1.7
				l-0.1-0.2c-0.1-0.3-0.2-0.6-0.2-1c-0.4,0.4-0.8,0.7-1.3,0.9C113.9,38.3,113.1,38.5,112.4,38.5z M113.9,31.7
				c-1.5,0-2.7,0.3-3.5,0.9c-0.8,0.6-1.2,1.4-1.2,2.4c0,0.9,0.3,1.6,0.9,2.1c0.6,0.6,1.4,0.8,2.4,0.8c0.7,0,1.4-0.1,2-0.4
				c0.6-0.3,1.1-0.7,1.5-1.2l0.4-0.6l0,0.7c0,0.6,0.1,1,0.2,1.3h0.8c-0.2-0.6-0.3-1.3-0.3-2.3v-5.4c0-1.1-0.3-1.9-1-2.5
				c-0.7-0.6-1.6-0.9-2.7-0.9c-1.1,0-2.1,0.3-2.8,0.9c-0.7,0.6-1,1.2-1.1,1.9l0.7,0c0.1-0.6,0.4-1.1,0.9-1.6
				c0.6-0.5,1.3-0.7,2.2-0.7c1,0,1.7,0.3,2.3,0.8c0.5,0.5,0.8,1.2,0.8,2.1v1.5H113.9z M112.5,37.4c-0.8,0-1.4-0.2-1.9-0.7
				c-0.5-0.5-0.8-1.1-0.8-1.8c0-0.9,0.4-1.5,1.1-2c0.7-0.5,1.7-0.7,3-0.7h2.4l0,2.8c-0.3,0.7-0.8,1.3-1.5,1.7
				C114.1,37.2,113.4,37.4,112.5,37.4z M113.9,32.7c-1.1,0-2.1,0.2-2.7,0.6c-0.6,0.4-0.9,0.9-0.9,1.6c0,0.6,0.2,1,0.6,1.4
				c0.4,0.4,0.9,0.6,1.6,0.6c0.8,0,1.4-0.2,2-0.6c0.6-0.4,1-0.9,1.3-1.5v-2.2H113.9z"/>
		</g>
		<g>
			<path class="st1" d="M121.6,26.7l0,1.9c0.4-0.7,0.9-1.2,1.5-1.6c0.6-0.4,1.3-0.5,2-0.5c1.2,0,2,0.3,2.6,1
				c0.6,0.7,0.9,1.7,0.9,3.1V38h-1.2v-7.4c0-1-0.2-1.8-0.6-2.3c-0.4-0.5-1.1-0.7-2-0.7c-0.7,0-1.4,0.2-2,0.7c-0.6,0.5-1,1.1-1.3,2
				V38h-1.2V26.7H121.6z M125.9,22h1.5l-2.3,2.9l-1.1,0L125.9,22z"/>
			<path class="st2" d="M129,38.3h-1.7v-7.7c0-0.9-0.2-1.7-0.6-2.1c-0.4-0.4-0.9-0.7-1.8-0.7c-0.7,0-1.3,0.2-1.8,0.7
				c-0.5,0.4-0.9,1.1-1.2,1.8v8h-1.7V26.5h1.6l0,1.4c0.3-0.4,0.7-0.8,1.2-1c0.6-0.4,1.4-0.6,2.2-0.6c1.2,0,2.2,0.4,2.8,1.1
				c0.6,0.7,0.9,1.8,0.9,3.2V38.3z M127.8,37.8h0.7v-7.2c0-1.3-0.3-2.3-0.8-2.9c-0.5-0.6-1.3-0.9-2.4-0.9c-0.7,0-1.3,0.2-1.9,0.5
				c-0.6,0.3-1.1,0.9-1.4,1.5l-0.4,0.8l-0.1-2.6h-0.7v10.8h0.7l0-7.6c0.3-0.9,0.7-1.6,1.4-2.1c0.6-0.5,1.3-0.8,2.1-0.8
				c1,0,1.7,0.3,2.1,0.8c0.4,0.5,0.7,1.4,0.7,2.4V37.8z M125.2,25.2l-1.6,0l2.3-3.4h2.1L125.2,25.2z M124.4,24.7l0.5,0l1.9-2.4H126
				L124.4,24.7z"/>
		</g>
	</g>
	<g class="st3">
		<g>
			<path class="st1" d="M47.6,22.8L53,36.3l5.4-13.4h1.7V38h-1.2v-6.6l0.1-6.8L53.5,38h-1l-5.4-13.4l0.1,6.7V38H46V22.8H47.6z"/>
			<path class="st2" d="M60.4,38.3h-1.7v-6.9l0.1-5.5l-5,12.4h-1.3l-5-12.3l0.1,5.4v6.9h-1.7V22.6h2.1l0.1,0.2L53,35.6l5.3-13h2.1
				V38.3z M59.1,37.8h0.7V23.1h-1.2L53,36.9l-5.6-13.9h-1.2v14.7H47v-6.4l-0.1-8l5.9,14.5h0.6l5.9-14.5l-0.1,8.1V37.8z"/>
		</g>
		<g>
			<path class="st1" d="M63.5,23.5c0-0.2,0.1-0.4,0.2-0.6c0.1-0.2,0.3-0.2,0.6-0.2c0.3,0,0.5,0.1,0.6,0.2c0.2,0.2,0.2,0.4,0.2,0.6
				c0,0.2-0.1,0.4-0.2,0.6s-0.4,0.2-0.6,0.2c-0.3,0-0.5-0.1-0.6-0.2C63.5,23.9,63.5,23.7,63.5,23.5z M64.9,38h-1.2V26.7h1.2V38z"/>
			<path class="st2" d="M65.1,38.3h-1.7V26.5h1.7V38.3z M63.9,37.8h0.7V27h-0.7V37.8z M64.3,24.5c-0.3,0-0.6-0.1-0.8-0.3
				c-0.2-0.2-0.3-0.5-0.3-0.8c0-0.3,0.1-0.6,0.3-0.8c0.2-0.2,0.5-0.3,0.8-0.3c0.3,0,0.6,0.1,0.8,0.3c0.2,0.2,0.3,0.5,0.3,0.8
				c0,0.3-0.1,0.6-0.3,0.8C64.9,24.4,64.6,24.5,64.3,24.5z M64.3,22.9c-0.2,0-0.3,0.1-0.4,0.2c-0.1,0.1-0.2,0.3-0.2,0.4
				c0,0.2,0.1,0.3,0.2,0.4c0.2,0.2,0.6,0.2,0.8,0c0.1-0.1,0.2-0.2,0.2-0.4c0-0.2-0.1-0.3-0.2-0.4C64.6,22.9,64.5,22.9,64.3,22.9z"/>
		</g>
		<g>
			<path class="st1" d="M72.4,38.3c-0.9,0-1.8-0.2-2.5-0.7c-0.7-0.5-1.3-1.1-1.7-2c-0.4-0.8-0.6-1.8-0.6-2.9v-0.5
				c0-1.1,0.2-2.1,0.6-2.9c0.4-0.9,1-1.6,1.7-2.1c0.7-0.5,1.5-0.7,2.4-0.7c1.3,0,2.4,0.5,3.1,1.4c0.8,0.9,1.2,2.2,1.2,3.8v0.7h-7.8
				v0.2c0,1.3,0.4,2.4,1.1,3.2c0.7,0.9,1.6,1.3,2.7,1.3c0.6,0,1.2-0.1,1.7-0.4c0.5-0.2,0.9-0.6,1.3-1.2l0.8,0.6
				C75.4,37.6,74.1,38.3,72.4,38.3z M72.2,27.6c-0.9,0-1.7,0.3-2.3,1c-0.6,0.7-1,1.6-1.1,2.8h6.5v-0.1c0-1.1-0.3-2-0.9-2.7
				C73.8,27.9,73.1,27.6,72.2,27.6z"/>
			<path class="st2" d="M72.4,38.5c-1,0-1.9-0.3-2.6-0.8c-0.8-0.5-1.4-1.2-1.8-2.1c-0.4-0.9-0.6-1.9-0.6-3v-0.4c0-1.1,0.2-2.1,0.6-3
				c0.4-0.9,1-1.6,1.8-2.2c0.8-0.5,1.6-0.8,2.5-0.8c1.4,0,2.5,0.5,3.3,1.5c0.8,1,1.2,2.3,1.2,4v1H69c0,1.2,0.3,2.2,1,3
				s1.5,1.2,2.5,1.2c0.6,0,1.1-0.1,1.6-0.3c0.5-0.2,0.9-0.6,1.3-1.1l0.2-0.2l1.1,0.9l-0.1,0.2C75.5,37.8,74.2,38.5,72.4,38.5z
				 M72.2,26.8c-0.8,0-1.5,0.2-2.2,0.7c-0.7,0.5-1.2,1.1-1.6,2c-0.4,0.8-0.6,1.8-0.6,2.8v0.4c0,1,0.2,1.9,0.6,2.7
				c0.4,0.8,1,1.4,1.7,1.9c0.7,0.4,1.5,0.7,2.4,0.7c1.5,0,2.7-0.6,3.5-1.7L75.5,36c-0.4,0.5-0.8,0.8-1.3,1c-0.5,0.3-1.1,0.4-1.8,0.4
				c-1.1,0-2.1-0.5-2.9-1.4c-0.7-0.9-1.1-2-1.1-3.4v-0.5h7.8v-0.5c0-1.6-0.4-2.8-1.1-3.7C74.4,27.2,73.4,26.8,72.2,26.8z M75.5,31.7
				h-7.1l0-0.3c0.1-1.2,0.5-2.2,1.2-2.9c0.7-0.7,1.5-1.1,2.5-1.1c1,0,1.8,0.4,2.4,1.1c0.6,0.7,0.9,1.7,1,2.8V31.7z M69,31.2h6
				c0-1-0.3-1.8-0.8-2.4c-0.5-0.6-1.2-0.9-2-0.9c-0.8,0-1.5,0.3-2.1,1C69.5,29.4,69.2,30.2,69,31.2z"/>
		</g>
		<g>
			<path class="st1" d="M85.4,35.2c0-0.6-0.2-1.1-0.7-1.5c-0.5-0.4-1.2-0.7-2.2-0.9c-1-0.2-1.7-0.5-2.3-0.7c-0.5-0.3-0.9-0.6-1.2-1
				s-0.4-0.9-0.4-1.4c0-0.9,0.4-1.6,1.1-2.2c0.7-0.6,1.6-0.9,2.8-0.9c1.2,0,2.2,0.3,2.9,0.9c0.7,0.6,1.1,1.4,1.1,2.4h-1.2
				c0-0.7-0.3-1.2-0.8-1.7c-0.5-0.4-1.2-0.7-2-0.7c-0.8,0-1.4,0.2-1.9,0.5c-0.5,0.4-0.7,0.8-0.7,1.4c0,0.6,0.2,1,0.6,1.3
				c0.4,0.3,1.1,0.6,2.2,0.9c1.1,0.3,1.9,0.5,2.4,0.8c0.5,0.3,0.9,0.6,1.2,1.1c0.3,0.4,0.4,0.9,0.4,1.5c0,1-0.4,1.7-1.1,2.3
				c-0.7,0.6-1.7,0.9-2.9,0.9c-1.3,0-2.3-0.3-3.1-1c-0.8-0.6-1.2-1.4-1.2-2.4h1.2c0,0.7,0.3,1.3,0.9,1.7c0.5,0.4,1.3,0.6,2.2,0.6
				c0.8,0,1.5-0.2,2-0.6C85.1,36.2,85.4,35.8,85.4,35.2z"/>
			<path class="st2" d="M82.5,38.5c-1.3,0-2.4-0.3-3.2-1c-0.8-0.7-1.3-1.6-1.3-2.6v-0.2h1.7l0,0.2c0,0.7,0.3,1.2,0.8,1.5
				c0.5,0.4,1.2,0.6,2,0.6c0.8,0,1.4-0.2,1.9-0.5c0.5-0.3,0.7-0.7,0.7-1.3c0-0.5-0.2-1-0.6-1.3c-0.4-0.4-1.1-0.6-2.1-0.8
				c-1-0.2-1.8-0.5-2.3-0.8c-0.6-0.3-1-0.7-1.3-1.1c-0.3-0.4-0.4-1-0.4-1.6c0-1,0.4-1.8,1.2-2.4c0.8-0.6,1.7-0.9,2.9-0.9
				c1.3,0,2.3,0.3,3.1,1c0.8,0.7,1.2,1.6,1.2,2.6v0.2H85v-0.2c0-0.6-0.2-1.1-0.7-1.5c-0.5-0.4-1.1-0.6-1.9-0.6
				c-0.7,0-1.3,0.2-1.8,0.5c-0.4,0.3-0.6,0.7-0.6,1.2c0,0.5,0.2,0.9,0.5,1.1c0.4,0.3,1.1,0.6,2.1,0.8c1.1,0.3,1.9,0.5,2.4,0.9
				c0.6,0.3,1,0.7,1.3,1.1c0.3,0.5,0.4,1,0.4,1.6c0,1-0.4,1.9-1.2,2.5C84.8,38.2,83.8,38.5,82.5,38.5z M78.5,35.1
				c0.1,0.8,0.4,1.4,1.1,2c0.7,0.6,1.7,0.9,2.9,0.9c1.1,0,2.1-0.3,2.8-0.8c0.7-0.5,1-1.2,1-2.1c0-0.5-0.1-1-0.3-1.4
				c-0.2-0.4-0.6-0.7-1.1-1c-0.5-0.3-1.3-0.6-2.3-0.8c-1.1-0.3-1.8-0.6-2.3-0.9c-0.5-0.4-0.7-0.9-0.7-1.5c0-0.7,0.3-1.2,0.8-1.6
				c0.5-0.4,1.2-0.6,2.1-0.6c0.9,0,1.6,0.2,2.2,0.7c0.5,0.4,0.8,1,0.9,1.6h0.7c-0.1-0.8-0.4-1.5-1-2c-0.7-0.6-1.6-0.9-2.8-0.9
				c-1.1,0-1.9,0.3-2.6,0.8c-0.7,0.5-1,1.2-1,2c0,0.5,0.1,1,0.3,1.3c0.2,0.4,0.6,0.7,1.1,0.9c0.5,0.3,1.2,0.5,2.2,0.7
				c1,0.2,1.8,0.5,2.3,0.9c0.5,0.4,0.8,1,0.8,1.7c0,0.7-0.3,1.2-0.9,1.7c-0.6,0.4-1.3,0.6-2.2,0.6c-1,0-1.7-0.2-2.3-0.7
				c-0.5-0.4-0.9-1-1-1.7H78.5z"/>
		</g>
		<g>
			<path class="st1" d="M90.1,37h7.1V38h-8.6v-0.9l6.6-9.3h-6.4v-1.1h7.9v0.9L90.1,37z"/>
			<path class="st2" d="M97.4,38.3h-9.1V37l6.4-9h-6.2v-1.6H97v1.3l0,0.1l-6.4,8.9h6.8V38.3z M88.8,37.8h8.1v-0.6h-7.3l6.9-9.7V27
				H89v0.6h6.6l-6.8,9.6V37.8z"/>
		</g>
		<g>
			<path class="st1" d="M101.9,32.3l-1.4,1.4V38h-1.2V22h1.2v10.3l1.1-1.3l4.2-4.3h1.5l-4.6,4.8l5,6.6h-1.4L101.9,32.3z"/>
			<path class="st2" d="M108.3,38.3h-2.1l-0.1-0.1l-4.2-5.5l-1.1,1.1v4.5h-1.7V21.7h1.7v9.9l0.7-0.8l4.3-4.3h2.2l-4.9,5L108.3,38.3z
				 M106.4,37.8h0.8l-4.9-6.3l4.4-4.5h-0.8l-4.1,4.2l-1.6,1.8V22.2h-0.7v15.6h0.7v-4.2l1.7-1.7L106.4,37.8z"/>
		</g>
		<g>
			<path class="st1" d="M116.3,38c-0.1-0.4-0.2-0.9-0.2-1.6c-0.4,0.6-1,1-1.6,1.3c-0.7,0.3-1.3,0.5-2.1,0.5c-1,0-1.9-0.3-2.5-0.9
				c-0.6-0.6-1-1.4-1-2.3c0-1.1,0.4-2,1.3-2.6c0.9-0.6,2.1-1,3.7-1h2.2v-1.3c0-0.8-0.2-1.4-0.7-1.9c-0.5-0.5-1.2-0.7-2.1-0.7
				c-0.8,0-1.5,0.2-2.1,0.7c-0.6,0.4-0.8,1-0.8,1.6l-1.2,0c0-0.9,0.4-1.7,1.2-2.3c0.8-0.7,1.8-1,3-1c1.2,0,2.2,0.3,2.9,0.9
				c0.7,0.6,1.1,1.5,1.1,2.6v5.4c0,1.1,0.1,1.9,0.3,2.5V38H116.3z M112.5,37.1c0.8,0,1.5-0.2,2.2-0.6c0.6-0.4,1.1-0.9,1.4-1.6v-2.5
				h-2.2c-1.2,0-2.1,0.2-2.8,0.7c-0.7,0.4-1,1.1-1,1.8c0,0.6,0.2,1.2,0.7,1.6C111.2,36.9,111.8,37.1,112.5,37.1z"/>
			<path class="st2" d="M112.4,38.5c-1.1,0-2-0.3-2.7-1c-0.7-0.7-1.1-1.5-1.1-2.5c0-1.2,0.5-2.1,1.4-2.8c0.9-0.7,2.2-1,3.8-1h1.9v-1
				c0-0.7-0.2-1.3-0.6-1.7c-0.4-0.4-1.1-0.6-1.9-0.6c-0.8,0-1.4,0.2-1.9,0.6c-0.5,0.4-0.7,0.9-0.7,1.4v0.3l-1.7,0v-0.2
				c0-1,0.4-1.8,1.3-2.5c0.8-0.7,1.9-1,3.1-1c1.3,0,2.3,0.3,3,1c0.8,0.7,1.1,1.6,1.2,2.8v5.4c0,1.1,0.1,1.9,0.3,2.4l0,0.1v0.4h-1.7
				l-0.1-0.2c-0.1-0.3-0.2-0.6-0.2-1c-0.4,0.4-0.8,0.7-1.3,0.9C113.9,38.3,113.1,38.5,112.4,38.5z M113.9,31.7
				c-1.5,0-2.7,0.3-3.5,0.9c-0.8,0.6-1.2,1.4-1.2,2.4c0,0.9,0.3,1.6,0.9,2.1c0.6,0.6,1.4,0.8,2.4,0.8c0.7,0,1.4-0.1,2-0.4
				c0.6-0.3,1.1-0.7,1.5-1.2l0.4-0.6l0,0.7c0,0.6,0.1,1,0.2,1.3h0.8c-0.2-0.6-0.3-1.3-0.3-2.3v-5.4c0-1.1-0.3-1.9-1-2.5
				c-0.7-0.6-1.6-0.9-2.7-0.9c-1.1,0-2.1,0.3-2.8,0.9c-0.7,0.6-1,1.2-1.1,1.9l0.7,0c0.1-0.6,0.4-1.1,0.9-1.6
				c0.6-0.5,1.3-0.7,2.2-0.7c1,0,1.7,0.3,2.3,0.8c0.5,0.5,0.8,1.2,0.8,2.1v1.5H113.9z M112.5,37.4c-0.8,0-1.4-0.2-1.9-0.7
				c-0.5-0.5-0.8-1.1-0.8-1.8c0-0.9,0.4-1.5,1.1-2c0.7-0.5,1.7-0.7,3-0.7h2.4l0,2.8c-0.3,0.7-0.8,1.3-1.5,1.7
				C114.1,37.2,113.4,37.4,112.5,37.4z M113.9,32.7c-1.1,0-2.1,0.2-2.7,0.6c-0.6,0.4-0.9,0.9-0.9,1.6c0,0.6,0.2,1,0.6,1.4
				c0.4,0.4,0.9,0.6,1.6,0.6c0.8,0,1.4-0.2,2-0.6c0.6-0.4,1-0.9,1.3-1.5v-2.2H113.9z"/>
		</g>
		<g>
			<path class="st1" d="M121.6,26.7l0,1.9c0.4-0.7,0.9-1.2,1.5-1.6c0.6-0.4,1.3-0.5,2-0.5c1.2,0,2,0.3,2.6,1
				c0.6,0.7,0.9,1.7,0.9,3.1V38h-1.2v-7.4c0-1-0.2-1.8-0.6-2.3c-0.4-0.5-1.1-0.7-2-0.7c-0.7,0-1.4,0.2-2,0.7c-0.6,0.5-1,1.1-1.3,2
				V38h-1.2V26.7H121.6z M125.9,22h1.5l-2.3,2.9l-1.1,0L125.9,22z"/>
			<path class="st2" d="M129,38.3h-1.7v-7.7c0-0.9-0.2-1.7-0.6-2.1c-0.4-0.4-0.9-0.7-1.8-0.7c-0.7,0-1.3,0.2-1.8,0.7
				c-0.5,0.4-0.9,1.1-1.2,1.8v8h-1.7V26.5h1.6l0,1.4c0.3-0.4,0.7-0.8,1.2-1c0.6-0.4,1.4-0.6,2.2-0.6c1.2,0,2.2,0.4,2.8,1.1
				c0.6,0.7,0.9,1.8,0.9,3.2V38.3z M127.8,37.8h0.7v-7.2c0-1.3-0.3-2.3-0.8-2.9c-0.5-0.6-1.3-0.9-2.4-0.9c-0.7,0-1.3,0.2-1.9,0.5
				c-0.6,0.3-1.1,0.9-1.4,1.5l-0.4,0.8l-0.1-2.6h-0.7v10.8h0.7l0-7.6c0.3-0.9,0.7-1.6,1.4-2.1c0.6-0.5,1.3-0.8,2.1-0.8
				c1,0,1.7,0.3,2.1,0.8c0.4,0.5,0.7,1.4,0.7,2.4V37.8z M125.2,25.2l-1.6,0l2.3-3.4h2.1L125.2,25.2z M124.4,24.7l0.5,0l1.9-2.4H126
				L124.4,24.7z"/>
		</g>
	</g>
</g>
</svg>
